<svg width="1024" height="1024" viewBox="0 0 1024 1024" fill="none" xmlns="http://www.w3.org/2000/svg">
<rect width="1024" height="1024" rx="60" fill="black"/>
<path d="M540.964 520.761C542.214 520.732 543.463 520.716 544.714 520.716C568.54 520.64 703.35 518.011 714.775 523.004C733.112 531.016 764.883 564.414 780.423 578.807C796.828 593.999 813.887 608.865 829.668 624.694C838.592 633.647 845.235 643.968 844.905 657.145C844.641 667.631 837.19 676.71 830.054 683.761C807.593 705.957 783.703 726.891 760.684 748.518C742.953 765.178 708.9 801.921 689.586 811.886C683.044 815.262 676.486 817.161 669.176 817.828C656.215 819.014 642.956 818.461 629.94 818.434L567.39 818.295L378.278 818.269C320.199 817.601 261.407 818.223 203.277 818.117C222.625 799.956 241.775 781.585 260.722 763.006C333.224 691.192 315.714 696.508 417.017 696.602L553.092 696.686C573.308 696.69 593.512 697.028 613.918 696.879C632.814 696.784 649.449 684.03 661.701 670.649C678.979 651.773 668.335 637.393 652.884 623.519C615.277 589.752 579.138 553.703 540.964 520.761Z" fill="white"/>
<path d="M179 205L509.276 205.573C558.795 205.559 608.436 205.383 657.92 205.545C667.813 205.575 685.646 208.257 693.412 214.068C711.634 227.701 730.442 248.216 747.055 264.133C774.297 290.234 801.175 316.096 827.71 342.778C837.945 353.07 845.147 362.591 844.459 377.741C844.18 383.892 840.993 391.928 836.987 396.296C814.8 420.49 784.517 446.118 760.242 467.955C757.781 470.375 756.492 471.396 752.856 471.484C735.422 471.906 717.919 471.435 700.464 471.39L590.369 470.864C605.392 454.539 623.225 437.975 639.147 422.213C662.935 398.415 686.518 385.149 653.822 354.319C633.053 334.736 623.483 332.897 594.979 333.667C586.474 333.898 574.427 333.753 565.535 333.786L405.046 333.874C379.713 333.864 352.555 335.038 327.633 332.158C311.468 330.289 293.072 311.185 281.238 300.387C260.619 281.573 238.807 262.15 218.902 242.677C209.877 233.848 184.396 213.477 179 205Z" fill="white"/>
<path d="M179.559 446.926L282.995 446.954C301.344 446.965 319.738 447.124 338.079 447.126C363.173 447.13 377.864 466.28 394.637 482.793L431.632 519.049L487.842 573.732C497.745 583.285 511.591 595.534 520.54 605.413C474.938 607.822 426.22 603.505 380.47 605.753C359.957 606.76 343.653 606.255 328.521 591.811C278.784 544.333 229.415 493.992 179.559 446.926Z" fill="white"/>
</svg>
