<svg width="443" height="408" viewBox="0 0 443 408" fill="none" xmlns="http://www.w3.org/2000/svg">
<path d="M240.439 209.749C241.27 209.73 242.099 209.719 242.93 209.719C258.758 209.668 348.308 207.922 355.896 211.239C368.077 216.561 389.181 238.746 399.505 248.307C410.402 258.399 421.734 268.273 432.216 278.788C438.144 284.736 442.557 291.591 442.338 300.344C442.162 307.31 437.213 313.341 432.473 318.025C417.552 332.769 401.683 346.675 386.393 361.04C374.614 372.107 351.994 396.515 339.165 403.134C334.819 405.376 330.462 406.638 325.607 407.081C316.997 407.869 308.19 407.501 299.543 407.484L257.993 407.391L132.372 407.374C93.7922 406.93 54.739 407.344 16.125 407.273C28.9773 395.209 41.6977 383.006 54.2835 370.665C102.444 322.961 90.813 326.492 158.105 326.555L248.496 326.61C261.924 326.613 275.345 326.837 288.9 326.738C301.452 326.676 312.503 318.203 320.641 309.314C332.118 296.776 325.048 287.224 314.784 278.008C289.803 255.577 265.797 231.631 240.439 209.749Z" fill="white"/>
<path d="M0 0L219.392 0.380726C252.285 0.371208 285.26 0.254281 318.131 0.3617C324.703 0.382097 336.549 2.16336 341.708 6.02367C353.812 15.0796 366.305 28.7069 377.341 39.2803C395.436 56.6183 413.291 73.7973 430.918 91.5216C437.716 98.3584 442.5 104.683 442.043 114.746C441.858 118.832 439.741 124.17 437.08 127.072C422.342 143.143 402.226 160.167 386.1 174.673C384.466 176.28 383.609 176.958 381.194 177.017C369.614 177.297 357.986 176.984 346.392 176.954L273.259 176.605C283.239 165.761 295.085 154.758 305.661 144.288C321.462 128.479 337.128 119.667 315.409 99.1878C301.613 86.1792 295.256 84.9581 276.322 85.4694C270.672 85.623 262.67 85.5265 256.763 85.5482L150.155 85.6067C133.327 85.5999 115.287 86.3804 98.7323 84.4672C87.9944 83.2258 75.7744 70.5353 67.9137 63.3627C54.2171 50.8653 39.7276 37.9627 26.5055 25.0274C20.5104 19.1629 3.58428 5.6307 0 0Z" fill="white"/>
<path d="M0.371094 160.703L69.0803 160.722C81.269 160.729 93.4877 160.835 105.671 160.836C122.34 160.839 132.099 173.559 143.241 184.529L167.815 208.612L205.154 244.936C211.732 251.282 220.93 259.419 226.874 265.981C196.582 267.582 164.22 264.714 133.83 266.207C120.204 266.876 109.374 266.54 99.3223 256.946C66.2833 225.408 33.489 191.968 0.371094 160.703Z" fill="white"/>
</svg>
