<svg version="1.2" xmlns="http://www.w3.org/2000/svg" viewBox="0 0 1045 1008" width="1008" height="972.3100478468899"><style>.a{fill:#fff;stroke:#000;stroke-miterlimit:10}</style><path fill-rule="evenodd" class="a" d="m40 54.9c6.6 6 27.5 25.3 46.5 42.9 19 17.6 43.9 40.5 55.5 50.9 11.5 10.4 23.7 21.7 27 25.3 3.3 3.5 17.8 16.8 32.2 29.6 20.2 17.9 29.9 24.3 42 27.8 13.4 3.8 47.1 4.5 224.2 4.4 179.4 0 210.4 0.6 222 4.6 7.4 2.5 22.6 12.3 33.8 21.8 11.1 9.4 22.9 21.2 26.2 26.1 3.3 5 5.9 12.1 5.9 15.8 0.1 3.7-1.5 9.8-3.4 13.5-1.9 3.7-28.5 32.4-59.1 63.7l-55.7 57c178.8 1.4 235.1 1 240.5 0.1 7.3-1.2 24.3-14.7 67.5-53.6 50.3-45.2 58.6-54 64.7-68.2 5-11.5 6.5-19.3 5.3-26.8-1-5.7-5.5-15.9-10-22.6-4.6-6.6-53.3-55.9-108.2-109.4-62.2-60.6-105.3-100.3-114-104.9l-14-7.5-740.9-1.4zm-5.6 348.1c-0.8 1.3 50.7 54.4 114.5 118.1 108.6 108.4 117 116.1 130.3 119.3 9.5 2.3 55.3 3.3 138 3.2l123.7-0.1c-179-176.9-236.3-231.1-242.9-234.7-11.7-6.3-15.5-6.5-137-7.3-68.7-0.5-125.7 0.2-126.6 1.5zm529 111.1c0 1.2 11.1 12.3 24.7 24.7 13.6 12.4 54.4 50.3 90.7 84.2 36.4 34 67.7 63.7 69.8 66 2 2.4 4.6 9 5.7 14.8 1.5 7.7 0.5 12.9-3.7 19.8-3.1 5.1-13.8 16.4-23.7 25.1-9.9 8.7-22.7 18-28.5 20.7-9.3 4.3-35.5 5-225 6.4-208 1.4-214.8 1.6-224 7.5-5.2 3.3-48.7 44.1-96.7 90.7-48 46.6-87.2 86.1-87.2 87.7 0 2 117.7 2.8 348.7 2.3 344.3-0.8 348.8-0.9 362.2-7 7.4-3.3 24.3-16.2 37.4-28.4 13.2-12.3 61.7-58.1 107.7-101.8 46-43.8 85.3-82.9 87.3-87 2-4.2 4.5-12.3 5.6-18 1.1-5.8 0.5-15.9-1.3-22.5-2.5-9.3-10.3-18.9-33.9-42-16.8-16.5-37.2-36.1-45.4-43.7-8.2-7.5-26.5-24.3-40.5-37.4-14.1-13.2-33.7-31.3-43.6-40.4-12.7-11.5-22.4-17.6-32.2-20.2-10.2-2.7-47.7-3.8-134.1-3.8-66 0-120 1-120 2.3z"/></svg>