<svg version="1.2" xmlns="http://www.w3.org/2000/svg" viewBox="0 0 1045 1008" width="1008" height="972.3100478468899"><style>.a{stroke:#000;stroke-miterlimit:10}.b{opacity:1;fill:#fff;stroke:#000;stroke-miterlimit:10}</style><path fill-rule="evenodd" class="a" d="m1065.3 0v1020.5h-1067.3v-1020.5z"/><path fill-rule="evenodd" class="b" d="m104 114c0 0.2 6.7 6.5 14.9 14.1 8.2 7.7 23.1 21.5 33.1 30.8 10 9.2 26.7 24.6 37.1 34.1 10.4 9.5 25.4 23.3 33.2 30.7 7.9 7.4 19.5 18 25.7 23.6 6.3 5.6 13.6 11.9 16.4 14 2.8 2.1 7.5 5.2 10.5 6.9 3 1.6 7.6 3.5 10.1 4.2 2.6 0.7 8.1 1.8 12.3 2.3 5.2 0.6 58.9 1.1 171.7 1.6 106.4 0.5 168.6 1 176.8 1.6 7 0.6 14.5 1.5 16.8 2.2 2.4 0.7 6.9 2.8 10.1 4.7 3.3 1.9 9.5 6.2 13.9 9.5 4.4 3.3 12.4 10.4 17.8 15.7 7.5 7.4 10.4 10.9 12.3 14.7 1.8 4 2.4 6.3 2.3 10.6 0 3.9-0.5 6.5-1.9 9.2-1 2.1-5.1 7.4-9.1 11.8-4 4.4-22.5 23.7-41 42.8-18.6 19.1-36.7 37.9-40.3 41.7l-6.4 6.9c112.4 1.1 158.3 1.3 174.5 1.1l29.5-0.3c7.8-4.8 13.3-8.7 17.3-11.9 3.9-3.1 13-10.8 20.2-17.1 7.1-6.3 15.8-14.1 19.3-17.3 3.5-3.3 12.6-11.6 20.1-18.6 7.6-6.9 17.1-16 21.1-20.2 4-4.3 8.5-9.8 9.9-12.3 1.5-2.4 3.8-7.3 5-10.8 1.2-3.5 2.4-9 2.6-12.2 0.4-5.1 0.1-6.8-2.1-12.6-1.4-3.7-4.4-9.2-6.6-12.2-2.1-3-18.5-20.2-36.4-38.2-17.9-18-43.9-43.8-57.8-57.3-13.9-13.5-32.8-31.7-42.1-40.5-9.3-8.8-22-20.6-28.2-26.1-6.2-5.6-13.6-12.1-16.4-14.4-2.8-2.3-8.3-5.9-12.2-8l-7.2-3.9c-485.7-0.8-626.8-1-626.8-0.9zm9.5 303.5c-2.4 0.1-4.4 0.6-4.5 0.9 0 0.3 4.5 5.6 10 11.6 5.5 6 24 25.1 41.1 42.5 17.1 17.4 48.3 48.6 69.4 69.5 21.1 20.9 44.9 44.3 53 52 8.1 7.7 17 15.7 19.8 17.8 2.8 2.1 6.8 4.6 8.8 5.6 2.1 1 6.3 2.2 9.3 2.6 3 0.4 20.3 1.1 38.3 1.5 18.1 0.4 65.8 0.8 106.1 0.8h73.2c-46.9-46.5-81.6-80.5-107.3-105.6-25.7-25-54.5-53-64-62-9.5-9.1-21.2-20.1-26.1-24.4-6.9-6.2-9.9-8.2-13.5-9.4-2.5-0.8-7.4-1.9-10.9-2.4-4.3-0.6-37.6-1-102.3-1.1-52.8-0.1-98-0.1-100.4 0.1zm460.6 93.6c-8.9 0.3-16.4 0.7-16.6 1-0.3 0.2 0.3 1.5 1.4 2.9 1 1.3 11.9 11.8 24.2 23.1 12.3 11.4 35.8 33.2 52.2 48.4 16.4 15.3 40.8 38.2 54.2 50.9 13.4 12.8 25.1 24.4 25.9 25.8 0.8 1.4 2.1 5.2 2.9 8.4 0.8 3.5 1.2 7.2 0.9 9.1-0.3 1.7-1.6 5.1-2.8 7.5-1.5 3-5.6 7.9-12.8 15-5.9 5.8-14.1 13.1-18.2 16.3-4.2 3.1-9.9 6.7-12.7 8.1-4 2-6.8 2.7-14.3 3.4-5.1 0.4-28.7 1.2-52.6 1.6-23.8 0.5-93.5 1.3-154.9 1.7-61.4 0.5-119.9 1.3-130.1 1.7-10.2 0.5-20.4 1.2-22.7 1.7-2.3 0.4-5.7 1.9-7.6 3.2-1.8 1.3-7.9 6.5-13.5 11.6-5.5 5.1-17.1 15.8-25.6 23.9-8.6 8.1-23 21.9-32 30.7-9.1 8.8-27.6 27-41.3 40.5-13.6 13.4-29 28.7-34.1 34-9.1 9.5-9.2 9.6-7.1 10.5 1.4 0.6 72 1 236.5 1.2 145.1 0.2 255.6-0.1 289.7-0.6 30.3-0.5 58-1.3 61.4-1.8 3.5-0.4 8-1.4 10.1-2 2.1-0.7 7.4-3.8 11.8-6.9 4.4-3.1 10.3-7.5 13.1-9.8 2.7-2.3 17.5-16 32.8-30.4 15.3-14.4 35.4-33.4 44.6-42.2 9.3-8.8 32.4-30.9 51.3-49.2 18.9-18.3 37.2-36.5 40.6-40.3 5.5-6.1 6.5-7.7 8.4-13.9 1.7-5.3 2.2-8.6 2.2-14.5 0-4.3-0.5-9.5-1.3-12.2-0.7-2.6-3.3-7.4-5.7-10.9-2.6-3.8-12-13.9-23-24.9-10.2-10.2-33.9-32.7-52.6-50.1-18.8-17.3-39.6-36.6-46.3-42.8-6.8-6.2-14.2-12.9-16.5-14.8-2.3-2-5.9-4.7-8-6.1-2.1-1.4-6.3-3.5-9.3-4.7-4.2-1.7-8.1-2.4-17.2-3.2-7.4-0.6-41.1-1-90.5-1.2-43.3-0.1-86 0-94.9 0.3z"/></svg>